<svg xmlns="http://www.w3.org/2000/svg" viewBox="-1 -1 24 9" role="img" aria-label="MEZA"><g fill="#0B0B0B" shape-rendering="crispEdges"><rect x="0" y="0" width="1" height="1"/><rect x="4" y="0" width="1" height="1"/><rect x="0" y="1" width="1" height="1"/><rect x="1" y="1" width="1" height="1"/><rect x="3" y="1" width="1" height="1"/><rect x="4" y="1" width="1" height="1"/><rect x="0" y="2" width="1" height="1"/><rect x="2" y="2" width="1" height="1"/><rect x="4" y="2" width="1" height="1"/><rect x="0" y="3" width="1" height="1"/><rect x="4" y="3" width="1" height="1"/><rect x="0" y="4" width="1" height="1"/><rect x="4" y="4" width="1" height="1"/><rect x="0" y="5" width="1" height="1"/><rect x="4" y="5" width="1" height="1"/><rect x="0" y="6" width="1" height="1"/><rect x="4" y="6" width="1" height="1"/><rect x="6" y="0" width="1" height="1"/><rect x="7" y="0" width="1" height="1"/><rect x="8" y="0" width="1" height="1"/><rect x="9" y="0" width="1" height="1"/><rect x="6" y="1" width="1" height="1"/><rect x="6" y="2" width="1" height="1"/><rect x="6" y="3" width="1" height="1"/><rect x="7" y="3" width="1" height="1"/><rect x="8" y="3" width="1" height="1"/><rect x="6" y="4" width="1" height="1"/><rect x="6" y="5" width="1" height="1"/><rect x="6" y="6" width="1" height="1"/><rect x="7" y="6" width="1" height="1"/><rect x="8" y="6" width="1" height="1"/><rect x="9" y="6" width="1" height="1"/><rect x="18" y="0" width="1" height="1"/><rect x="19" y="0" width="1" height="1"/><rect x="20" y="0" width="1" height="1"/><rect x="17" y="1" width="1" height="1"/><rect x="21" y="1" width="1" height="1"/><rect x="17" y="2" width="1" height="1"/><rect x="21" y="2" width="1" height="1"/><rect x="17" y="3" width="1" height="1"/><rect x="18" y="3" width="1" height="1"/><rect x="19" y="3" width="1" height="1"/><rect x="20" y="3" width="1" height="1"/><rect x="21" y="3" width="1" height="1"/><rect x="17" y="4" width="1" height="1"/><rect x="21" y="4" width="1" height="1"/><rect x="17" y="5" width="1" height="1"/><rect x="21" y="5" width="1" height="1"/><rect x="17" y="6" width="1" height="1"/><rect x="21" y="6" width="1" height="1"/></g><g transform="translate(11 0)"><g fill="#0B0B0B" shape-rendering="crispEdges"><rect x="0" y="0" width="1" height="1"/><rect x="1" y="0" width="1" height="1"/><rect x="2" y="0" width="1" height="1"/><rect x="3" y="0" width="1" height="1"/><rect x="4" y="0" width="1" height="1"/><rect x="0" y="1" width="1" height="1"/><rect x="1" y="1" width="1" height="1"/><rect x="2" y="1" width="1" height="1"/><rect x="3" y="1" width="1" height="1"/><rect x="4" y="1" width="1" height="1"/><rect x="3" y="2" width="1" height="1"/><rect x="4" y="2" width="1" height="1"/><rect x="2" y="3" width="1" height="1"/><rect x="3" y="3" width="1" height="1"/><rect x="1" y="4" width="1" height="1"/><rect x="2" y="4" width="1" height="1"/><rect x="0" y="5" width="1" height="1"/><rect x="1" y="5" width="1" height="1"/><rect x="2" y="5" width="1" height="1"/><rect x="3" y="5" width="1" height="1"/><rect x="4" y="5" width="1" height="1"/><rect x="0" y="6" width="1" height="1"/><rect x="1" y="6" width="1" height="1"/><rect x="2" y="6" width="1" height="1"/><rect x="3" y="6" width="1" height="1"/><rect x="4" y="6" width="1" height="1"/></g></g></svg>